<svg id="Layer_1" data-name="Layer 1" xmlns="http://www.w3.org/2000/svg" viewBox="0 0 1724.58 255.8"><defs><style>.cls-1{fill:#5f6ab0;}.cls-2{fill:#fff;}.cls-3{fill:#f05a64;}.cls-4{fill:#37b34a;}.cls-5{fill:#009ade;}</style></defs><path class="cls-1" d="M352.78,546.9A127.76,127.76,0,1,1,225,419.14,127.76,127.76,0,0,1,352.78,546.9Z" transform="translate(-97.26 -419)"/><path class="cls-2" d="M296.77,541.57,285,529.65H215.81a34.13,34.13,0,0,0-29.73-17.42,34.67,34.67,0,1,0,29.68,51.92h13.92l11-11,8.43,8.43,8.09-8.09,8.31,8.3,8.44-8.42,8.42,8.42,14.39-14.37C298.84,545.25,298.89,543.73,296.77,541.57ZM171,556a9.22,9.22,0,1,1,9.1-9.22A9.26,9.26,0,0,1,171,556Z" transform="translate(-97.26 -419)"/><path class="cls-3" d="M720.05,546.76A127.76,127.76,0,1,1,592.29,419,127.77,127.77,0,0,1,720.05,546.76Z" transform="translate(-97.26 -419)"/><path class="cls-2" d="M639.38,499.36c-17-7.87-39.23-.47-47.08,16.49-7.88-17-30.1-24.37-47.1-16.49-18.1,8.4-26.76,29.84-12.46,55.14,10.16,18,28.15,31.57,59.56,55.89,31.39-24.32,49.39-37.89,59.54-55.89C666.13,529.2,657.48,507.76,639.38,499.36Z" transform="translate(-97.26 -419)"/><path class="cls-4" d="M1087.31,547A127.76,127.76,0,1,1,959.56,419.21,127.76,127.76,0,0,1,1087.31,547Z" transform="translate(-97.26 -419)"/><path class="cls-2" d="M987.78,557.93c-.82,4.09-2.77,11.29,2,10.8,5.88-.66,15.21-14.23,16-28.47,1.48-27.64-18.81-42.86-43.84-42.86-27.48,0-46.62,20.94-46.62,49.57,0,30.27,21.43,49.57,49.4,49.57,13.58,0,24-3.27,29.29-6.54l13.41,10.8c-11.46,5.88-26.5,11.12-44,11.12-35.18,0-63.49-27.48-63.49-64.95,0-37,27.66-65,62.5-65,14.41,0,27.65,4.42,38.45,14.24,11.12,9.81,18.32,22.74,18.32,38.28,0,13.58-3.6,26.17-10.14,34.84-7.85,10.47-17.35,14.73-25.19,14.4-4.58-.16-8.85-4.25-10.15-9.49a27.07,27.07,0,0,1-20.94,9.49c-14.39,0-27.49-13.57-27.49-30.43,0-20.12,13.1-39.43,33.37-39.43,8.36,0,15.23,3.11,20.13,10.14l1.64-8.67H996Zm-30.43,7.86c10.15,0,14.4-9.82,15.39-18,1.14-9.33-3.78-15.87-11.79-15.87-9.33,0-16,9.81-16,18.81C944.92,558.75,949.33,565.79,957.35,565.79Z" transform="translate(-97.26 -419)"/><path class="cls-3" d="M1821.84,546.83a127.76,127.76,0,1,1-127.75-127.76A127.76,127.76,0,0,1,1821.84,546.83Z" transform="translate(-97.26 -419)"/><polygon class="cls-2" points="1667.5 96.18 1644.51 73.18 1581.19 136.5 1549.13 104.45 1526.13 127.44 1559.86 161.17 1559.88 161.15 1581.21 182.48 1667.5 96.18"/><path class="cls-5" d="M1454.58,547a127.76,127.76,0,1,1-127.76-127.76A127.77,127.77,0,0,1,1454.58,547Z" transform="translate(-97.26 -419)"/><path class="cls-2" d="M1263.63,493.18V505H1277l15.43,108.43h68.71L1376.61,505H1390V493.18Zm96.56,41.24H1343V505.29h21.31Zm-39.39,30.34H1318V541.84h17.6v22.92Zm14.82,7.42v29.13H1318V572.18Zm-41.12-30.34h16.1v22.92h-12.84Zm23.52-7.42V505.29h17.6v29.13H1318Zm25,11.66v-4.24h16.11l-3.27,22.92H1343Zm-32.43-40.79v29.13h-17.16l-4.14-29.13Zm-11.78,66.89h11.78v29.13H1303ZM1343,601.31V572.18h11.79l-4.15,29.13Z" transform="translate(-97.26 -419)"/></svg>